<svg width="467" height="111" viewBox="0 0 467 111" fill="none" xmlns="http://www.w3.org/2000/svg">
<rect width="111" height="111" rx="55.5" fill="#FFC14F"/>
<path d="M26.6936 40.7151C26.6936 39.565 26.795 38.4391 26.9891 37.3464L17 42.7737L26.6936 47.6397V40.7151Z" fill="#FFA600"/>
<path d="M63.2732 40.7151C63.2732 30.379 55.0845 22 44.9834 22C36.0062 22 28.5395 28.6181 26.9891 37.3464C26.795 38.4391 26.6936 39.565 26.6936 40.7151V47.6397V54.5642C26.6936 73.5826 41.7606 89 60.3468 89C78.9329 89 94 73.5826 94 54.5642H78.6366H63.2732V40.7151Z" fill="white"/>
<path d="M78.6366 54.5642H63.2732V40.7151C63.2732 30.379 55.0845 22 44.9834 22C36.0062 22 28.5395 28.6181 26.9891 37.3464M78.6366 54.5642H94C94 73.5826 78.9329 89 60.3468 89C41.7606 89 26.6936 73.5826 26.6936 54.5642V47.6397M78.6366 54.5642C78.6366 54.5642 79.6506 64.0911 76.4418 69.5363C73.6983 74.1919 67.2969 77.5838 60.3468 77.5838C53.3967 77.5838 49.9216 73.6536 49.9216 73.6536M26.9891 37.3464C26.795 38.4391 26.6936 39.565 26.6936 40.7151V47.6397M26.9891 37.3464L17 42.7737L26.6936 47.6397" stroke="#333333" stroke-width="3" stroke-linecap="round" stroke-linejoin="round"/>
<path d="M139.064 85.5C137.944 85.5 137.132 85.248 136.628 84.744C136.18 84.24 135.956 83.484 135.956 82.476V31.488C135.956 30.424 136.18 29.64 136.628 29.136C137.132 28.632 137.944 28.38 139.064 28.38H155.864C165.328 28.38 172.552 30.648 177.536 35.184C182.576 39.72 185.096 46.972 185.096 56.94C185.096 75.98 175.352 85.5 155.864 85.5H139.064ZM156.536 77.352C162.472 77.352 166.924 75.812 169.892 72.732C172.916 69.652 174.428 64.388 174.428 56.94C174.428 49.492 172.916 44.256 169.892 41.232C166.924 38.152 162.472 36.612 156.536 36.612H146.708V77.352H156.536ZM202.671 86.76C198.079 86.76 194.383 85.5 191.583 82.98C188.783 80.404 187.383 76.596 187.383 71.556V48.288C187.383 47.224 187.607 46.44 188.055 45.936C188.559 45.432 189.371 45.18 190.491 45.18H194.943C196.063 45.18 196.875 45.432 197.379 45.936C197.883 46.44 198.135 47.224 198.135 48.288V71.304C198.135 73.992 198.835 75.98 200.235 77.268C201.635 78.5 203.707 79.116 206.451 79.116C209.363 79.116 211.799 78.304 213.759 76.68C215.719 75.056 216.699 72.956 216.699 70.38V48.288C216.699 47.224 216.951 46.44 217.455 45.936C217.959 45.432 218.771 45.18 219.891 45.18H224.259C225.379 45.18 226.191 45.432 226.695 45.936C227.199 46.44 227.451 47.224 227.451 48.288V83.232C227.451 84.128 227.311 84.744 227.031 85.08C226.751 85.36 226.163 85.5 225.267 85.5H220.563C219.947 85.5 219.499 85.388 219.219 85.164C218.939 84.884 218.771 84.464 218.715 83.904L218.379 80.376C214.571 84.632 209.335 86.76 202.671 86.76ZM255.998 86.76C248.55 86.76 242.726 84.94 238.526 81.3C234.382 77.604 232.31 72.34 232.31 65.508C232.31 61.252 233.262 57.5 235.166 54.252C237.07 51.004 239.786 48.484 243.314 46.692C246.898 44.844 251.07 43.92 255.83 43.92C259.358 43.92 262.354 44.256 264.818 44.928C267.282 45.6 269.578 46.692 271.706 48.204C272.21 48.54 272.462 48.904 272.462 49.296C272.462 49.632 272.322 50.024 272.042 50.472L269.774 54.42C269.438 54.98 269.13 55.26 268.85 55.26C268.57 55.26 268.178 55.092 267.674 54.756C265.938 53.692 264.202 52.908 262.466 52.404C260.786 51.844 258.77 51.564 256.418 51.564C252.218 51.564 248.914 52.824 246.506 55.344C244.098 57.808 242.894 61.196 242.894 65.508C242.894 70.044 244.098 73.46 246.506 75.756C248.914 77.996 252.442 79.116 257.09 79.116C259.442 79.116 261.486 78.836 263.222 78.276C264.958 77.716 266.638 76.904 268.262 75.84C268.71 75.56 269.074 75.42 269.354 75.42C269.69 75.42 270.026 75.7 270.362 76.26L272.798 80.376C273.022 80.656 273.134 80.964 273.134 81.3C273.134 81.692 272.854 82.084 272.294 82.476C270.054 83.932 267.646 84.996 265.07 85.668C262.494 86.396 259.47 86.76 255.998 86.76ZM281.234 85.5C280.114 85.5 279.302 85.248 278.798 84.744C278.35 84.24 278.126 83.484 278.126 82.476V31.488C278.126 30.424 278.35 29.64 278.798 29.136C279.302 28.632 280.114 28.38 281.234 28.38H285.686C286.806 28.38 287.618 28.632 288.122 29.136C288.626 29.64 288.878 30.424 288.878 31.488V82.476C288.878 83.484 288.626 84.24 288.122 84.744C287.674 85.248 286.862 85.5 285.686 85.5H281.234ZM308.45 85.5C307.834 85.5 307.386 85.444 307.106 85.332C306.826 85.22 306.518 84.968 306.182 84.576L291.398 67.86C290.894 67.3 290.53 66.796 290.306 66.348C290.082 65.844 289.97 65.228 289.97 64.5C289.97 63.772 290.082 63.184 290.306 62.736C290.53 62.232 290.894 61.7 291.398 61.14L305.678 46.188C306.014 45.796 306.322 45.544 306.602 45.432C306.938 45.264 307.47 45.18 308.198 45.18H316.01C316.402 45.18 316.682 45.292 316.85 45.516C317.074 45.74 317.186 46.02 317.186 46.356C317.186 46.804 317.018 47.196 316.682 47.532L299.966 64.5L317.27 83.148C317.606 83.484 317.774 83.848 317.774 84.24C317.774 84.576 317.662 84.884 317.438 85.164C317.214 85.388 316.906 85.5 316.514 85.5H308.45ZM324.96 85.5C323.84 85.5 323.028 85.248 322.524 84.744C322.076 84.24 321.852 83.484 321.852 82.476V31.488C321.852 30.424 322.076 29.64 322.524 29.136C323.028 28.632 323.868 28.38 325.044 28.38H329.58C330.476 28.38 331.148 28.492 331.596 28.716C332.1 28.94 332.492 29.388 332.772 30.06L349.74 69.12L366.708 30.06C366.988 29.388 367.352 28.94 367.8 28.716C368.304 28.492 369.004 28.38 369.9 28.38H374.436C375.612 28.38 376.424 28.632 376.872 29.136C377.376 29.64 377.628 30.424 377.628 31.488V82.476C377.628 83.484 377.376 84.24 376.872 84.744C376.424 85.248 375.64 85.5 374.52 85.5H370.824C369.704 85.5 368.892 85.248 368.388 84.744C367.884 84.24 367.632 83.484 367.632 82.476V46.272L353.268 78.276C352.82 79.172 352.372 79.816 351.924 80.208C351.476 80.6 350.748 80.796 349.74 80.796C348.732 80.796 347.976 80.6 347.472 80.208C347.024 79.816 346.604 79.172 346.212 78.276L331.848 46.272V82.476C331.848 83.484 331.596 84.24 331.092 84.744C330.644 85.248 329.832 85.5 328.656 85.5H324.96ZM400.495 86.76C395.007 86.76 390.639 85.108 387.391 81.804C384.143 78.444 382.519 73.74 382.519 67.692C382.519 62.988 383.555 58.844 385.627 55.26C387.699 51.62 390.639 48.82 394.447 46.86C398.311 44.9 402.791 43.92 407.887 43.92C414.999 43.92 421.019 45.6 425.947 48.96V83.232C425.947 84.072 425.751 84.66 425.359 84.996C425.023 85.332 424.407 85.5 423.511 85.5H418.891C418.275 85.5 417.799 85.388 417.463 85.164C417.183 84.884 416.987 84.464 416.875 83.904L416.203 80.628C414.467 82.756 412.311 84.324 409.735 85.332C407.215 86.284 404.135 86.76 400.495 86.76ZM404.527 79.116C407.495 79.116 410.099 78.248 412.339 76.512C414.635 74.776 415.783 72.48 415.783 69.624V53.244C414.607 52.628 413.403 52.208 412.171 51.984C410.995 51.704 409.539 51.564 407.803 51.564C403.379 51.564 399.823 52.964 397.135 55.764C394.447 58.564 393.103 62.428 393.103 67.356C393.103 71.388 394.027 74.356 395.875 76.26C397.779 78.164 400.663 79.116 404.527 79.116ZM436.719 38.208C435.375 38.208 434.339 37.816 433.611 37.032C432.883 36.248 432.519 35.296 432.519 34.176V32.412C432.519 31.292 432.883 30.34 433.611 29.556C434.339 28.772 435.375 28.38 436.719 28.38H440.331C441.675 28.38 442.711 28.772 443.439 29.556C444.223 30.34 444.615 31.292 444.615 32.412V34.176C444.615 35.296 444.223 36.248 443.439 37.032C442.711 37.816 441.675 38.208 440.331 38.208H436.719ZM436.383 85.5C435.263 85.5 434.451 85.248 433.947 84.744C433.443 84.24 433.191 83.484 433.191 82.476V48.288C433.191 47.224 433.443 46.44 433.947 45.936C434.451 45.432 435.263 45.18 436.383 45.18H440.751C441.871 45.18 442.683 45.432 443.187 45.936C443.691 46.44 443.943 47.224 443.943 48.288V82.476C443.943 83.484 443.691 84.24 443.187 84.744C442.739 85.248 441.927 85.5 440.751 85.5H436.383ZM454.251 85.5C453.131 85.5 452.319 85.248 451.815 84.744C451.367 84.24 451.143 83.484 451.143 82.476V31.488C451.143 30.424 451.367 29.64 451.815 29.136C452.319 28.632 453.131 28.38 454.251 28.38H458.703C459.823 28.38 460.635 28.632 461.139 29.136C461.643 29.64 461.895 30.424 461.895 31.488V82.476C461.895 83.484 461.643 84.24 461.139 84.744C460.691 85.248 459.879 85.5 458.703 85.5H454.251Z" fill="#333333"/>
</svg>
